<?xml version="1.0" encoding="utf-8"?>
<!-- Generator: Adobe Illustrator 16.0.0, SVG Export Plug-In . SVG Version: 6.00 Build 0)  -->
<!DOCTYPE svg PUBLIC "-//W3C//DTD SVG 1.1//EN" "http://www.w3.org/Graphics/SVG/1.1/DTD/svg11.dtd" [
	<!ENTITY ns_extend "http://ns.adobe.com/Extensibility/1.0/">
	<!ENTITY ns_ai "http://ns.adobe.com/AdobeIllustrator/10.0/">
	<!ENTITY ns_graphs "http://ns.adobe.com/Graphs/1.0/">
	<!ENTITY ns_vars "http://ns.adobe.com/Variables/1.0/">
	<!ENTITY ns_imrep "http://ns.adobe.com/ImageReplacement/1.0/">
	<!ENTITY ns_sfw "http://ns.adobe.com/SaveForWeb/1.0/">
	<!ENTITY ns_custom "http://ns.adobe.com/GenericCustomNamespace/1.0/">
	<!ENTITY ns_adobe_xpath "http://ns.adobe.com/XPath/1.0/">
]>
<svg version="1.1" id="Layer_1" xmlns:x="&ns_extend;" xmlns:i="&ns_ai;" xmlns:graph="&ns_graphs;"
	 xmlns="http://www.w3.org/2000/svg" xmlns:xlink="http://www.w3.org/1999/xlink" x="0px" y="0px" width="109px" height="109px"
	 viewBox="41.5 108 109 109" enable-background="new 41.5 108 109 109" xml:space="preserve">
<metadata>
	<sfw  xmlns="&ns_sfw;">
		<slices></slices>
		<sliceSourceBounds  height="129.664" width="128.973" y="-53.349" x="42.242" bottomLeftOrigin="true"></sliceSourceBounds>
	</sfw>
</metadata>
<g>
	<path fill="#FFFFFF" d="M63.373,174.177v-0.496c0-0.452-0.406-0.724-0.86-0.724h-9.228c-7.734,0-9.318,4.071-9.318,7.553v0.361
		c0,2.4,0.86,4.164,2.352,5.384c-1.312,0.588-1.899,1.81-1.899,2.896c0,1.356,0.722,2.533,2.396,3.031l0.317,0.089
		c-1.492,0.906-3.393,3.348-3.393,6.516v0.407c0,4.114,2.623,7.01,9.589,7.01c7.147,0,9.591-2.94,9.591-7.01v-0.407
		c0-3.663-2.399-4.842-7.239-6.109l-8.142-2.124c-1.04-0.271-1.311-0.814-1.311-1.402c0-0.904,0.588-1.538,1.536-1.944
		c1.674,0.678,3.168,1.04,5.521,1.04c7.102,0,9.364-3.077,9.364-7.375v-0.361c0-3.301-1.583-4.884-2.488-5.606h2.352
		C62.967,174.903,63.373,174.675,63.373,174.177 M60.704,180.871c0,3.122-1.446,5.655-7.418,5.655c-6.198,0-7.329-3.393-7.329-5.655
		v-0.361c0-2.894,1.086-5.835,7.329-5.835c5.879,0,7.418,2.579,7.418,5.835V180.871z M60.931,199.193c0,3.347-1.584,5.338-7.6,5.338
		c-5.791,0-7.645-2.08-7.645-5.338v-0.407c0-3.031,1.311-4.705,3.303-6.017l6.243,1.628c4.75,1.221,5.699,1.854,5.699,4.389V199.193
		z M71.018,167.618v-3.347c0-0.451-0.408-0.86-0.859-0.86h-0.272c-0.453,0-0.859,0.409-0.859,0.86v3.347
		c0,0.498,0.407,0.861,0.859,0.861h0.272C70.61,168.479,71.018,168.116,71.018,167.618 M71.018,196.388v-22.572
		c0-0.452-0.408-0.858-0.859-0.858h-0.272c-0.453,0-0.859,0.406-0.859,0.858v22.572c0,0.453,0.407,0.86,0.859,0.86h0.272
		C70.61,197.248,71.018,196.841,71.018,196.388 M96.755,174.177v-0.496c0-0.452-0.407-0.724-0.859-0.724h-9.228
		c-7.735,0-9.317,4.071-9.317,7.553v0.361c0,2.4,0.857,4.164,2.352,5.384c-1.312,0.588-1.9,1.81-1.9,2.896
		c0,1.356,0.722,2.533,2.396,3.031l0.317,0.089c-1.494,0.906-3.393,3.348-3.393,6.516v0.407c0,4.114,2.624,7.01,9.589,7.01
		c7.148,0,9.587-2.94,9.587-7.01v-0.407c0-3.663-2.394-4.842-7.235-6.109l-8.143-2.124c-1.04-0.271-1.311-0.814-1.311-1.402
		c0-0.904,0.588-1.538,1.538-1.944c1.674,0.678,3.167,1.04,5.519,1.04c7.101,0,9.361-3.077,9.361-7.375v-0.361
		c0-3.301-1.581-4.884-2.485-5.606h2.352C96.348,174.903,96.755,174.675,96.755,174.177 M94.086,180.871
		c0,3.122-1.448,5.655-7.418,5.655c-6.197,0-7.33-3.393-7.33-5.655v-0.361c0-2.894,1.088-5.835,7.33-5.835
		c5.881,0,7.418,2.579,7.418,5.835V180.871z M94.313,199.193c0,3.347-1.584,5.338-7.6,5.338c-5.791,0-7.645-2.08-7.645-5.338v-0.407
		c0-3.031,1.311-4.705,3.303-6.017l6.242,1.628c4.749,1.221,5.699,1.854,5.699,4.389V199.193z"/>
	<g>
		<defs>
			<path id="SVGID_1_" d="M127.733,180.357c0.007,0,0.012,0,0.018,0C127.745,180.357,127.74,180.357,127.733,180.357
				 M127.751,180.357c0.003,0,0.003,0,0.003,0S127.754,180.357,127.751,180.357 M127.228,180.358c0.016,0,0.029,0,0.046,0
				c0.016,0.001,0.03,0.001,0.048,0.001c0.124,0,0.249,0,0.375-0.001c0.013,0,0.024,0,0.037-0.001
				c-0.05,0.001-0.101,0.001-0.15,0.001h-0.125c-0.143,0-0.283-0.002-0.423-0.002C127.1,180.357,127.163,180.358,127.228,180.358
				 M127.754,180.357c0.019,0,0.036,0,0.056-0.001C127.79,180.356,127.772,180.357,127.754,180.357 M128.286,180.348
				L128.286,180.348L128.286,180.348z M136.986,177.79c0.002-0.002,0.003-0.003,0.005-0.003
				C136.989,177.787,136.988,177.788,136.986,177.79 M136.991,177.787c0.004-0.001,0.006-0.003,0.01-0.004
				C136.997,177.784,136.995,177.786,136.991,177.787 M137.059,177.747c0.022-0.011,0.043-0.023,0.063-0.036
				C137.102,177.724,137.081,177.736,137.059,177.747 M115.109,177.091c1.461,0.935,3.183,1.747,5.203,2.327
				c0.016,0.005,0.032,0.009,0.048,0.015c0.009,0.001,0.016,0.004,0.024,0.006c0.023,0.006,0.047,0.014,0.07,0.021
				c0.009,0.002,0.019,0.003,0.026,0.005c0.022,0.007,0.048,0.015,0.07,0.021c0.007,0.002,0.012,0.003,0.019,0.005
				c0.024,0.008,0.052,0.015,0.078,0.021c0.006,0.002,0.011,0.003,0.018,0.006c0.027,0.007,0.055,0.014,0.082,0.021
				c0.003,0.002,0.005,0.002,0.007,0.003c0.03,0.009,0.06,0.017,0.091,0.024c0.002,0,0.004,0.001,0.006,0.001
				c1.501,0.39,3.157,0.653,4.986,0.751c0.003,0,0.007,0,0.01,0.001c0.036,0.002,0.071,0.003,0.107,0.006
				c0.006,0.001,0.01,0.001,0.015,0.001c0.032,0.001,0.065,0.002,0.098,0.004c0.01,0,0.019,0.001,0.028,0.001
				c0.028,0.001,0.056,0.004,0.084,0.005c0.012,0,0.027,0,0.04,0.001c0.023,0.001,0.049,0.002,0.072,0.003
				c0.016,0,0.033,0.001,0.049,0.003c0.022,0,0.043,0.001,0.063,0.002s0.04,0.001,0.061,0.001c0.015,0,0.029,0.001,0.045,0.001
				c0.026,0.001,0.055,0.002,0.079,0.003c0.007,0,0.014,0,0.02,0c0.034,0.001,0.068,0.003,0.103,0.004
				c-5.014-0.149-8.85-1.522-11.692-3.386C115.049,177.009,115.08,177.049,115.109,177.091 M139.691,147.232
				c0.006,7.494-2.039,17.712-12.411,22.63c-3.979,1.883-7.795,2.175-11.376,1.286c-0.003-0.001-0.008-0.003-0.013-0.003
				c-0.015-0.005-0.03-0.009-0.046-0.011c-0.005-0.001-0.01-0.004-0.014-0.005c-0.014-0.003-0.027-0.006-0.039-0.01
				c-0.01-0.003-0.02-0.004-0.03-0.008c-0.008-0.002-0.016-0.003-0.024-0.005c-0.014-0.005-0.029-0.009-0.042-0.012
				c-0.006-0.003-0.009-0.004-0.015-0.005c-0.019-0.004-0.036-0.009-0.055-0.013c-0.001-0.001-0.004-0.001-0.004-0.001
				c-1.219-0.324-2.408-0.785-3.568-1.365c3.075,1.859,6.324,2.608,9.496,2.608c8.481,0,16.406-5.355,18.929-9.154
				c7.325-11.039,1.97-20.802,1.796-21.118c2.497,2.986,4.834,6.807,5.663,11.817c0.368,2.636,0.38,5.737-0.234,9.334
				c-1.366,6.414-5.538,11.582-10.582,14.512c1.88-1.089,3.638-2.491,5.175-4.148c0.001-0.001,0.002-0.002,0.002-0.004
				c0.077-0.082,0.154-0.167,0.229-0.252c0.004-0.002,0.006-0.004,0.007-0.008c0.051-0.053,0.101-0.11,0.149-0.167
				c0.004-0.002,0.006-0.006,0.007-0.008c0.023-0.024,0.046-0.05,0.067-0.075c0.003-0.004,0.006-0.006,0.008-0.011
				c0.048-0.054,0.096-0.108,0.143-0.165c0.005-0.006,0.01-0.011,0.014-0.016c0.021-0.023,0.042-0.049,0.063-0.072
				c0.002-0.004,0.006-0.008,0.008-0.01c0.022-0.027,0.048-0.057,0.069-0.085c0.003-0.002,0.005-0.005,0.008-0.008
				c0.021-0.023,0.041-0.049,0.061-0.074c0.007-0.006,0.012-0.014,0.018-0.02c0.02-0.022,0.038-0.046,0.058-0.07
				c0.003-0.003,0.007-0.009,0.011-0.012c0.021-0.027,0.044-0.056,0.066-0.084c0.004-0.003,0.008-0.01,0.014-0.016
				c0.018-0.022,0.035-0.044,0.054-0.068c0.007-0.006,0.011-0.014,0.017-0.02c0.044-0.054,0.089-0.11,0.132-0.166
				c0.005-0.008,0.011-0.015,0.016-0.021c0.02-0.023,0.036-0.046,0.054-0.067c0.004-0.008,0.009-0.013,0.014-0.018
				c0.021-0.029,0.043-0.059,0.065-0.086c0.002-0.002,0.005-0.006,0.007-0.009c0.019-0.025,0.039-0.049,0.058-0.075
				c0.005-0.008,0.012-0.015,0.017-0.022c0.018-0.023,0.035-0.046,0.052-0.068c0.005-0.007,0.01-0.013,0.013-0.018
				c0.022-0.028,0.043-0.057,0.063-0.085c0.004-0.007,0.009-0.012,0.014-0.018c0.017-0.022,0.033-0.045,0.051-0.069
				c0.006-0.008,0.012-0.016,0.017-0.022c0.02-0.026,0.039-0.053,0.058-0.079c0.001-0.002,0.003-0.004,0.005-0.006
				c0.021-0.028,0.041-0.058,0.063-0.087c0.005-0.007,0.01-0.014,0.015-0.021c0.018-0.024,0.033-0.046,0.05-0.07
				c0.005-0.006,0.01-0.013,0.015-0.021c0.021-0.029,0.042-0.059,0.063-0.087c0.001,0,0.001-0.001,0.001-0.001
				c0.021-0.029,0.039-0.059,0.06-0.087c0.005-0.007,0.01-0.013,0.017-0.021c0.017-0.025,0.032-0.049,0.05-0.073
				c0.003-0.005,0.008-0.011,0.01-0.016c0.021-0.029,0.041-0.061,0.062-0.091c0.004-0.002,0.006-0.007,0.009-0.01
				c0.017-0.027,0.035-0.053,0.052-0.078c0.006-0.008,0.01-0.015,0.015-0.021c0.02-0.028,0.036-0.056,0.055-0.084
				c0.002-0.002,0.004-0.004,0.006-0.006c0.021-0.031,0.04-0.062,0.06-0.092c0.004-0.006,0.007-0.01,0.011-0.017
				c0.019-0.026,0.033-0.05,0.049-0.076c0.005-0.006,0.009-0.013,0.014-0.021c0.04-0.06,0.08-0.123,0.118-0.183
				c0.003-0.007,0.006-0.01,0.01-0.017c0.019-0.028,0.036-0.056,0.054-0.083c0.002-0.004,0.004-0.007,0.006-0.012
				c0.041-0.063,0.079-0.126,0.118-0.19c0.003-0.005,0.006-0.011,0.009-0.014c0.02-0.031,0.038-0.061,0.057-0.093
				c0-0.001,0.001-0.001,0.001-0.002c0.02-0.032,0.04-0.067,0.061-0.099c0-0.001,0.002-0.004,0.002-0.006
				c0.02-0.03,0.036-0.061,0.055-0.091c0.004-0.006,0.005-0.008,0.008-0.014c0.038-0.063,0.076-0.13,0.114-0.195
				c0.001-0.003,0.003-0.006,0.004-0.008c0.019-0.03,0.036-0.062,0.053-0.092c0.003-0.005,0.005-0.007,0.007-0.011
				c0.039-0.067,0.075-0.133,0.111-0.199c0.002-0.004,0.003-0.006,0.004-0.008c0.058-0.104,0.114-0.206,0.169-0.308
				c0-0.001,0.001-0.004,0.001-0.005c0.918-1.718,1.624-3.586,2.057-5.575c0-0.001,0-0.001,0-0.001
				c0.019-0.083,0.036-0.163,0.053-0.245c0.001-0.001,0.001-0.001,0.001-0.001c0.008-0.039,0.016-0.079,0.023-0.119
				c0-0.001,0-0.001,0-0.002c0.018-0.082,0.033-0.161,0.047-0.242c0.001-0.004,0.002-0.007,0.002-0.011
				c0.007-0.038,0.016-0.076,0.021-0.114c0.001-0.002,0.001-0.003,0.001-0.004c0.008-0.04,0.015-0.081,0.022-0.122
				c0-0.002,0-0.002,0-0.004c0.008-0.036,0.013-0.073,0.02-0.109c0.001-0.007,0.002-0.015,0.004-0.022
				c0.006-0.037,0.013-0.074,0.018-0.109c0-0.003,0-0.004,0.001-0.005c0.007-0.039,0.014-0.078,0.019-0.117
				c0.002-0.007,0.004-0.015,0.004-0.021c0.005-0.031,0.01-0.063,0.014-0.093c0.001-0.01,0.004-0.02,0.005-0.028
				c0.005-0.038,0.013-0.077,0.018-0.114c0.206-1.412,0.301-2.754,0.301-4.03c-0.001-9.615-5.402-15.486-9.432-19.401
				C138.938,139.158,139.69,142.697,139.691,147.232"/>
		</defs>
		<clipPath id="SVGID_2_">
			<use xlink:href="#SVGID_1_"  overflow="visible"/>
		</clipPath>
		<g clip-path="url(#SVGID_2_)">
			<defs>
				<polygon id="SVGID_3_" points="109.354,174.423 129.32,133.276 157.802,147.223 137.834,188.37 				"/>
			</defs>
			<clipPath id="SVGID_4_">
				<use xlink:href="#SVGID_3_"  overflow="visible"/>
			</clipPath>
			<g clip-path="url(#SVGID_4_)">
				
					<image overflow="visible" width="49" height="34" xlink:href="C78C5429.jpg"  transform="matrix(0.4075 -0.8397 -0.8376 -0.4102 137.834 188.3701)">
				</image>
			</g>
		</g>
	</g>
	<g>
		<defs>
			<path id="SVGID_5_" d="M126.938,180.356h0.098c-0.104-0.001-0.21-0.003-0.316-0.005
				C126.792,180.354,126.864,180.354,126.938,180.356 M127.81,180.356c0.063,0,0.128,0,0.192-0.001
				c0.084-0.002,0.169-0.003,0.254-0.007C128.105,180.354,127.956,180.355,127.81,180.356 M128.287,180.348
				c0.256-0.006,0.514-0.021,0.771-0.04c0.009,0,0.016-0.001,0.024-0.001c0.026-0.002,0.054-0.004,0.08-0.007
				c0.013-0.001,0.026-0.003,0.04-0.004c0.02-0.001,0.039-0.002,0.062-0.006c0.017-0.002,0.034-0.003,0.053-0.004
				c0.016-0.001,0.032-0.002,0.048-0.005c0.02-0.002,0.041-0.004,0.062-0.005c0.013-0.002,0.025-0.004,0.036-0.005
				c0.025-0.003,0.047-0.004,0.071-0.007c0.008-0.001,0.018-0.002,0.025-0.003c0.028-0.003,0.054-0.004,0.08-0.009
				c0.001,0,0.004,0,0.005,0c1.434-0.159,2.873-0.511,4.278-1.03C132.073,179.905,130.168,180.295,128.287,180.348 M133.926,179.222
				c0.025-0.009,0.054-0.02,0.079-0.028C133.979,179.202,133.951,179.213,133.926,179.222 M134.059,179.172
				c0.007-0.002,0.012-0.004,0.017-0.007C134.07,179.168,134.065,179.17,134.059,179.172 M115.011,176.959
				c0.003,0.002,0.006,0.004,0.008,0.007c-0.965-1.349-2.452-3.864-3.362-7.458c0.131,0.069,0.266,0.138,0.398,0.204
				c-0.137-0.083-0.275-0.169-0.412-0.257C112.547,173.065,114.044,175.6,115.011,176.959"/>
		</defs>
		<clipPath id="SVGID_6_">
			<use xlink:href="#SVGID_5_"  overflow="visible"/>
		</clipPath>
		
			<linearGradient id="SVGID_7_" gradientUnits="userSpaceOnUse" x1="-202.7295" y1="535.5234" x2="-201.6637" y2="535.5234" gradientTransform="matrix(34.9256 -14.825 -14.825 -34.9256 15134.5713 15876.2031)">
			<stop  offset="0" style="stop-color:#C1885D"/>
			<stop  offset="0.3006" style="stop-color:#C1885D"/>
			<stop  offset="0.3672" style="stop-color:#C38C63"/>
			<stop  offset="0.4558" style="stop-color:#CA9974"/>
			<stop  offset="0.5567" style="stop-color:#D4AD8F"/>
			<stop  offset="0.6667" style="stop-color:#E3C9B6"/>
			<stop  offset="0.7829" style="stop-color:#F6EDE7"/>
			<stop  offset="0.8344" style="stop-color:#FFFFFF"/>
			<stop  offset="1" style="stop-color:#FFFFFF"/>
		</linearGradient>
		<polygon clip-path="url(#SVGID_6_)" fill="url(#SVGID_7_)" points="107.722,171.119 130.65,161.386 137.997,178.692 
			115.067,188.424 		"/>
	</g>
	<g>
		<defs>
			<path id="SVGID_8_" d="M144.327,150.941c0.003,3.507-0.886,7.762-3.848,12.225c-2.949,4.444-13.288,11.014-23.264,8.66
				c-0.001,0-0.001,0-0.001,0c-0.021-0.006-0.047-0.011-0.067-0.018c-0.005,0-0.009-0.001-0.014-0.002
				c-0.021-0.006-0.043-0.011-0.063-0.017c-0.005,0-0.009-0.001-0.012-0.001c-0.021-0.006-0.041-0.01-0.063-0.017
				c-0.005-0.001-0.013-0.003-0.018-0.004c-0.02-0.006-0.036-0.009-0.055-0.015c-0.009-0.002-0.019-0.004-0.026-0.006
				c-0.016-0.005-0.032-0.007-0.047-0.012c-0.012-0.004-0.022-0.006-0.035-0.01c-0.014-0.005-0.027-0.007-0.042-0.011
				c-0.013-0.004-0.027-0.007-0.04-0.012c-0.011-0.002-0.021-0.004-0.032-0.008c-0.02-0.004-0.039-0.01-0.06-0.015
				c-0.005-0.001-0.011-0.005-0.015-0.006c-1.547-0.42-3.079-1.06-4.573-1.964c-0.133-0.066-0.268-0.135-0.398-0.204
				c0.91,3.594,2.397,6.109,3.362,7.458c2.456,1.608,5.655,2.854,9.713,3.258c0.002,0,0.003,0,0.003,0.001
				c0.036,0.004,0.071,0.007,0.106,0.01c0.003,0.002,0.005,0.002,0.008,0.002c0.034,0.002,0.068,0.005,0.105,0.009
				c0,0,0.004,0.001,0.007,0.001c0.035,0.002,0.07,0.007,0.107,0.011c0.001,0,0.002,0,0.003,0c0.036,0.002,0.071,0.006,0.105,0.009
				c0.004,0,0.008,0,0.012,0.001c0.034,0.001,0.065,0.004,0.1,0.008c0.004,0,0.011,0.001,0.015,0.001
				c0.034,0.002,0.066,0.005,0.101,0.007c0.005,0.002,0.009,0.002,0.012,0.002c0.035,0.002,0.067,0.004,0.104,0.006
				c0.004,0,0.008,0.001,0.012,0.001c0.032,0.004,0.066,0.006,0.1,0.008c0.006,0,0.011,0.001,0.016,0.001
				c0.034,0.003,0.067,0.006,0.1,0.007c0.005,0,0.011,0,0.017,0.001c0.035,0.002,0.068,0.004,0.104,0.006
				c0.004,0.001,0.007,0.001,0.01,0.001c0.278,0.016,0.56,0.029,0.844,0.037c0.106,0.002,0.212,0.004,0.316,0.005
				c0.14,0,0.28,0.002,0.423,0.002h0.125c0.022,0,0.048,0,0.069,0c0.054,0,0.105-0.001,0.157-0.002
				c0.146-0.001,0.296-0.003,0.446-0.008c0.01,0,0.019-0.001,0.028-0.001c0.002,0,0.002,0,0.003,0
				c1.881-0.053,3.786-0.442,5.636-1.125c0-0.001,0.001-0.001,0.003-0.001c0.025-0.009,0.054-0.02,0.079-0.028
				c0.019-0.008,0.035-0.016,0.054-0.021c0.007-0.002,0.012-0.004,0.017-0.007c4.095-1.553,7.894-4.55,10.515-8.538
				c0.042-0.063,0.083-0.124,0.122-0.188c0-0.002,0.002-0.003,0.003-0.006c0.019-0.027,0.037-0.057,0.056-0.085
				c0.002-0.005,0.004-0.007,0.005-0.009c0.039-0.06,0.077-0.121,0.113-0.181c0.005-0.006,0.008-0.011,0.012-0.018
				c0.016-0.027,0.032-0.054,0.051-0.082c0-0.003,0.002-0.005,0.003-0.007c0.018-0.029,0.037-0.059,0.055-0.087
				c0.004-0.008,0.008-0.015,0.011-0.021c0.015-0.024,0.028-0.047,0.042-0.07c0.007-0.006,0.011-0.014,0.015-0.023
				c0.018-0.028,0.035-0.057,0.053-0.086c0.002-0.004,0.005-0.01,0.008-0.015c0.015-0.024,0.028-0.047,0.042-0.072
				c0.006-0.009,0.012-0.02,0.018-0.028c0.014-0.021,0.024-0.042,0.036-0.063c0.005-0.007,0.011-0.017,0.017-0.025
				c0.015-0.027,0.03-0.054,0.047-0.082c0.006-0.011,0.012-0.021,0.018-0.032c0.011-0.018,0.021-0.036,0.031-0.056
				c0.007-0.011,0.015-0.025,0.021-0.037c0.013-0.02,0.024-0.041,0.036-0.061c0.009-0.019,0.018-0.033,0.027-0.05
				c0.01-0.018,0.021-0.035,0.029-0.054c0.008-0.014,0.016-0.028,0.023-0.041c0.008-0.016,0.017-0.031,0.024-0.047
				c0.01-0.014,0.017-0.028,0.023-0.041c0.014-0.025,0.027-0.052,0.041-0.075c0.009-0.017,0.016-0.032,0.024-0.046
				c0.009-0.016,0.016-0.028,0.022-0.041c0.009-0.017,0.017-0.033,0.024-0.047c0.01-0.017,0.016-0.027,0.022-0.043
				c0.015-0.026,0.029-0.054,0.044-0.08c0.006-0.013,0.012-0.026,0.019-0.039c0.011-0.017,0.019-0.035,0.027-0.053
				c0.006-0.011,0.012-0.021,0.017-0.031c0.031-0.061,0.063-0.122,0.093-0.184c0.006-0.01,0.01-0.019,0.016-0.028
				c0.009-0.02,0.019-0.038,0.027-0.058c0.005-0.008,0.008-0.014,0.012-0.021c0.019-0.039,0.038-0.078,0.058-0.117
				c0.002-0.006,0.005-0.012,0.008-0.017c0.01-0.021,0.021-0.041,0.03-0.063c0.003-0.007,0.007-0.014,0.011-0.021
				c0.032-0.068,0.063-0.135,0.096-0.202c0.002-0.004,0.004-0.011,0.007-0.015c0.012-0.023,0.021-0.044,0.032-0.067
				c0.002-0.004,0.002-0.006,0.003-0.009c0.034-0.071,0.066-0.143,0.099-0.215c0.002-0.003,0.003-0.005,0.006-0.009
				c0.076-0.175,0.153-0.349,0.229-0.525c0.001-0.002,0.001-0.002,0.001-0.003c0.192-0.457,0.369-0.923,0.531-1.4
				c0.001-0.002,0.001-0.003,0.002-0.005c0.025-0.076,0.052-0.153,0.076-0.231c0.001-0.003,0.002-0.006,0.004-0.008
				c0.009-0.026,0.016-0.052,0.024-0.076c0,0,0-0.001,0.001-0.001c0.024-0.078,0.05-0.158,0.073-0.237
				c0.002-0.002,0.003-0.006,0.004-0.008c0.022-0.077,0.047-0.152,0.069-0.229c0-0.004,0.002-0.01,0.003-0.013
				c0.008-0.025,0.017-0.049,0.022-0.073c0.002-0.005,0.003-0.011,0.004-0.015c0.021-0.074,0.043-0.146,0.063-0.22
				c0.003-0.01,0.006-0.02,0.01-0.028c0.005-0.021,0.012-0.045,0.017-0.066c0.002-0.003,0.003-0.009,0.004-0.011
				c0.013-0.045,0.024-0.089,0.036-0.134c0.003-0.01,0.006-0.019,0.008-0.028c0.006-0.021,0.012-0.041,0.019-0.063
				c0.002-0.012,0.004-0.021,0.007-0.033c0.011-0.039,0.021-0.079,0.03-0.119c0.002-0.008,0.005-0.017,0.006-0.025
				c0.007-0.018,0.011-0.038,0.016-0.057c0.004-0.014,0.007-0.029,0.011-0.046c0.006-0.016,0.009-0.033,0.014-0.051
				c0.004-0.021,0.012-0.044,0.016-0.066c0.006-0.02,0.011-0.041,0.015-0.062c0.006-0.021,0.011-0.042,0.016-0.063
				c0.004-0.015,0.009-0.029,0.011-0.048c0.005-0.019,0.01-0.039,0.014-0.057c0.004-0.014,0.007-0.028,0.01-0.041
				c0.008-0.032,0.016-0.063,0.022-0.096c0.003-0.011,0.006-0.024,0.007-0.035c0.007-0.022,0.012-0.049,0.017-0.071
				c0.002-0.014,0.004-0.023,0.007-0.035c0.009-0.033,0.015-0.068,0.022-0.103c0.346-2.021,0.493-3.889,0.49-5.604
				c-0.001-1.334-0.095-2.577-0.256-3.729c-0.829-5.011-3.166-8.831-5.663-11.817C142.379,142.238,144.321,145.778,144.327,150.941"
				/>
		</defs>
		<clipPath id="SVGID_9_">
			<use xlink:href="#SVGID_8_"  overflow="visible"/>
		</clipPath>
		<g clip-path="url(#SVGID_9_)">
			<defs>
				<polygon id="SVGID_10_" points="108.559,174.73 128.252,134.147 157.528,148.484 137.834,189.066 				"/>
			</defs>
			<clipPath id="SVGID_11_">
				<use xlink:href="#SVGID_10_"  overflow="visible"/>
			</clipPath>
			<g transform="matrix(1 0 0 1 0 1.525879e-005)" clip-path="url(#SVGID_11_)">
				
					<image overflow="visible" width="72" height="52" xlink:href="C78C542B.jpg"  transform="matrix(0.2735 -0.5636 -0.563 -0.2757 137.834 189.0664)">
				</image>
			</g>
		</g>
	</g>
	<g>
		<defs>
			<path id="SVGID_12_" d="M123.733,111.401c-0.088,0.88-2.433,7.072-4.859,10.356c-2.784,3.775-7.539,10.895-12.041,19.513
				c-12.427,23.809,1.635,32.084,6.582,34.813c0.46,0.252,0.944,0.466,1.44,0.647c-0.963-1.395-2.342-3.824-3.199-7.224
				c3.506,1.845,7.292,2.599,11.283,1.805c-1.49-6.929-0.724-18.248,16.746-24.707c-0.063-4.221-0.749-7.464-0.856-8.205
				c-0.03-0.153-0.055-0.307-0.086-0.457c-2.322-14.925-6.126-22.755-9.177-26.941l-0.009-0.015l-0.004-0.004
				c-0.121-0.164-1.109-1.493-2.349-2.072c-0.36-0.165-0.755-0.26-1.147-0.26C124.99,108.651,123.939,109.365,123.733,111.401"/>
		</defs>
		<clipPath id="SVGID_13_">
			<use xlink:href="#SVGID_12_"  overflow="visible"/>
		</clipPath>
		
			<linearGradient id="SVGID_14_" gradientUnits="userSpaceOnUse" x1="-200.4209" y1="532.9268" x2="-199.3551" y2="532.9268" gradientTransform="matrix(40.7186 -31.8128 -31.8128 -40.7186 25211.6152 15482.5381)">
			<stop  offset="0" style="stop-color:#98A3D2"/>
			<stop  offset="0.1472" style="stop-color:#98A3D2"/>
			<stop  offset="0.2428" style="stop-color:#737CAB"/>
			<stop  offset="0.3543" style="stop-color:#4E5684"/>
			<stop  offset="0.4569" style="stop-color:#333B68"/>
			<stop  offset="0.5467" style="stop-color:#232A57"/>
			<stop  offset="0.6135" style="stop-color:#1D2451"/>
			<stop  offset="1" style="stop-color:#1D2451"/>
		</linearGradient>
		<polygon clip-path="url(#SVGID_13_)" fill="url(#SVGID_14_)" points="61.377,134.457 122.523,86.685 172.715,150.927 
			111.569,198.699 		"/>
	</g>
	<g>
		<defs>
			<path id="SVGID_15_" d="M119.57,120.034c-0.223,0.387-0.615,1.025-1.111,1.819c1.031-0.387,1.915-0.665,2.583-0.854
				c0.028,0.276,0.055,0.559,0.087,0.84c-0.851,0.252-2.028,0.64-3.414,1.202c-0.252,0.401-0.52,0.828-0.797,1.269
				c1.702-0.809,3.192-1.392,4.295-1.78c0.045,0.283,0.093,0.566,0.143,0.854c-1.33,0.475-3.201,1.229-5.309,2.304
				c-0.313,0.508-0.634,1.011-0.953,1.519c2.507-1.425,4.774-2.454,6.399-3.122c0.058,0.288,0.122,0.579,0.191,0.87
				c-1.9,0.786-4.695,2.083-7.661,3.893c-0.367,0.584-0.76,1.148-1.086,1.685l0.379-0.208c3.293-2.104,6.389-3.671,8.547-4.669
				c0.08,0.291,0.162,0.588,0.251,0.879c-2.119,0.985-5.121,2.512-8.315,4.55c-0.579,0.367-1.409,0.92-2.104,1.428
				c-0.389,0.649-0.694,1.173-0.873,1.513l-0.167,0.295c1.316-1.051,2.73-1.995,3.749-2.628c3.033-1.889,5.858-3.412,7.921-4.464
				c0.092,0.296,0.203,0.587,0.309,0.884c-2.034,1.04-4.785,2.528-7.735,4.368c-1.524,0.942-3.639,2.436-5.69,4.364
				c-0.438,0.727-0.833,1.471-1.347,2.366c2.927-3.092,5.942-5.132,7.637-6.151c2.82-1.711,5.428-3.189,7.391-4.274
				c0.109,0.278,0.215,0.553,0.33,0.83l0.028,0.062c-1.941,1.075-4.494,2.528-7.256,4.198c-2.277,1.371-7.014,4.634-10.565,9.863
				c-0.609,1.22-1.188,2.482-1.712,3.75c2.692-5.076,7.334-9.82,12.876-13.065c2.651-1.558,5.075-2.997,6.949-4.101
				c0.131,0.303,0.272,0.599,0.412,0.891c-1.856,1.103-4.249,2.518-6.865,4.057c-6.335,3.702-11.456,9.416-13.698,15.279
				c-0.998,2.609-1.557,5.195-1.796,7.707c0.283-2.311,0.86-4.707,1.842-7.127c3.529-8.727,11.8-13.941,14.25-15.337
				c2.515-1.438,4.792-2.833,6.576-3.956c0.154,0.299,0.318,0.595,0.479,0.884c-1.787,1.128-4.056,2.515-6.558,3.944
				c-2.381,1.351-10.41,6.414-13.817,14.843c-0.919,2.255-1.468,4.492-1.747,6.673c0.317-1.997,0.882-4.047,1.775-6.127
				c2.887-6.729,9.323-12.104,14.385-14.895c2.421-1.34,4.593-2.71,6.298-3.853c0.177,0.299,0.352,0.594,0.538,0.877
				c-1.722,1.152-3.906,2.529-6.335,3.879c-4.916,2.703-11.157,7.907-13.94,14.396c-0.844,1.967-1.386,3.915-1.692,5.814
				c0.34-1.726,0.888-3.496,1.707-5.296c2.982-6.533,9.684-11.867,14.52-14.449c2.359-1.269,4.454-2.633,6.099-3.794
				c0.198,0.294,0.402,0.577,0.604,0.863c-1.672,1.179-3.803,2.571-6.205,3.857c-4.691,2.506-11.188,7.662-14.054,13.961
				c-0.779,1.696-1.3,3.37-1.624,5.006c0.35-1.478,0.88-2.99,1.625-4.518c2.88-5.936,9.431-11.31,14.65-14.011
				c2.349-1.216,4.396-2.598,5.99-3.801c0.226,0.29,0.455,0.571,0.684,0.844c-1.631,1.231-3.739,2.651-6.177,3.916
				c-5.061,2.617-11.407,7.813-14.18,13.521c-0.744,1.539-1.299,3.11-1.653,4.703c0.366-1.385,0.898-2.81,1.645-4.252
				c2.983-5.755,9.571-10.959,14.784-13.565c2.371-1.183,4.408-2.621,5.966-3.874c0.252,0.282,0.508,0.548,0.767,0.812
				c-2.015,2.854-15.959,8.426-19.773,17.291c-2.367,5.495-2.679,11.77-0.204,17.621c2.508,2.586,6.119,4.198,7.821,4.862
				c-0.533-0.277-1.049-0.567-1.525-0.875c-0.853-1.171-2.178-3.33-3.116-6.396c-0.792-1.813-1.042-4.259-1.049-6.257
				c-0.003-5.779,4.236-11.868,10.615-16.274c2.992-2.073,6.532-5.191,8.661-8.332c1.917,1.36,7.625,5.144,9.464,6.634
				c-0.064-3.358-0.515-6.08-0.738-7.382c-0.076-0.424-0.104-0.581-0.119-0.69c-2.455-2.065-5.12-3.988-7.166-6.204
				c-8.595-9.317-8.186-17.275-7.909-21.271C123.574,111.801,120.801,117.932,119.57,120.034"/>
		</defs>
		<clipPath id="SVGID_16_">
			<use xlink:href="#SVGID_15_"  overflow="visible"/>
		</clipPath>
		
			<linearGradient id="SVGID_17_" gradientUnits="userSpaceOnUse" x1="-207.519" y1="533.2646" x2="-206.4537" y2="533.2646" gradientTransform="matrix(33.8976 4.1621 4.1621 -33.8976 4918.4814 19082.4727)">
			<stop  offset="0" style="stop-color:#FFFFFF"/>
			<stop  offset="0.4294" style="stop-color:#FFFFFF"/>
			<stop  offset="0.4774" style="stop-color:#D6D7DF"/>
			<stop  offset="0.5423" style="stop-color:#A5A8BA"/>
			<stop  offset="0.6089" style="stop-color:#7B809A"/>
			<stop  offset="0.6763" style="stop-color:#595E7F"/>
			<stop  offset="0.7446" style="stop-color:#3F456B"/>
			<stop  offset="0.8143" style="stop-color:#2C325D"/>
			<stop  offset="0.886" style="stop-color:#212854"/>
			<stop  offset="0.9632" style="stop-color:#1D2451"/>
			<stop  offset="1" style="stop-color:#1D2451"/>
		</linearGradient>
		<polygon clip-path="url(#SVGID_16_)" fill="url(#SVGID_17_)" points="102.158,106.31 147.795,111.914 139.12,182.573 
			93.482,176.97 		"/>
	</g>
	<path fill="#FFFFFF" d="M111.76,192.235h-0.972v-0.908h0.972V192.235z M110.288,192.235h-0.971v-0.908h0.971V192.235z
		 M113.513,197.275h-1.104c-0.627,0-1.064-0.32-1.314-0.962c-0.197,0.306-0.571,0.47-1.111,0.47c-0.939,0-1.543-0.813-1.543-1.895
		c0-1.166,0.587-1.918,1.62-1.918c0-0.008,0.697-0.008,2.091-0.008v2.467c0,0.516,0.266,0.798,0.799,0.798h0.563V197.275z
		 M111.023,194.803v-1.033h-0.72c-0.446,0-0.774,0.493-0.774,1.104c0,0.548,0.313,1.002,0.751,1.002
		C110.741,195.875,111.023,195.444,111.023,194.803 M117.658,197.275h-4.407v-1.048h1.236c-0.102-0.274-0.155-0.524-0.155-0.751
		c0-0.51,0.163-0.947,0.492-1.309c0.336-0.359,0.76-0.539,1.276-0.539c0.666,0,1.229,0.376,1.502,0.994l-0.9,0.415
		c-0.101-0.306-0.305-0.462-0.625-0.462c-0.22,0-0.393,0.086-0.509,0.266c-0.11,0.149-0.164,0.344-0.164,0.579
		c0,0.415,0.147,0.689,0.438,0.807h1.816V197.275z M122.93,197.275h-1.033c-0.125,0.861-0.719,1.292-1.784,1.292h-0.118v-0.875
		h0.095c0.423,0,0.674-0.158,0.759-0.464c-0.085,0.032-0.304,0.047-0.674,0.047c-1.024,0-1.776-0.742-1.776-1.784
		c0-1.057,0.737-1.769,1.776-1.769c1.004,0,1.739,0.751,1.739,1.793v0.712h1.017V197.275z M120.817,196.228v-0.759
		c0-0.463-0.273-0.759-0.673-0.759c-0.416,0-0.635,0.319-0.635,0.734c0,0.446,0.266,0.783,0.674,0.783H120.817z M128.054,197.275
		h-1.252c-0.322,0.446-0.814,0.674-1.464,0.674c-0.665,0-1.158-0.228-1.488-0.674h-1.196v-1.048h0.876
		c0-1.129,0.643-1.832,1.777-1.832c1.143,0,1.831,0.681,1.831,1.832h0.916V197.275z M126.05,196.203
		c0-0.618-0.235-0.932-0.696-0.932h-0.079c-0.398,0-0.665,0.378-0.665,0.886c0,0.523,0.267,0.899,0.729,0.899
		C125.784,197.057,126.05,196.728,126.05,196.203 M134.327,197.275h-6.543v-1.048h4.446c-0.024-0.415-0.173-0.768-0.446-1.064
		c-0.306-0.337-0.712-0.509-1.205-0.509c-0.471,0-1.002,0.242-1.309,0.564c-0.109-0.149-0.288-0.393-0.547-0.745
		c0.532-0.556,1.174-0.829,1.933-0.829c0.463,0,0.869,0.087,1.222,0.25c0.837,0.399,1.33,1.175,1.464,2.333h0.985V197.275z
		 M131.229,198.576h-0.971v-0.908h0.971V198.576z M138.604,196.164c0,1.05-0.703,1.785-1.8,1.785c-0.666,0-1.166-0.228-1.487-0.674
		h-1.408v-1.048h1.087c0-1.119,0.643-1.832,1.77-1.832S138.604,195.093,138.604,196.164 M137.518,196.203
		c0-0.618-0.234-0.932-0.698-0.932h-0.078c-0.399,0-0.673,0.369-0.673,0.886c0,0.531,0.267,0.899,0.736,0.899
		C137.236,197.057,137.518,196.712,137.518,196.203"/>
	<path fill="#FFFFFF" d="M121.539,206.162h-0.064c-1.134,0-1.925-0.548-2.292-1.566h-0.721c-0.759,0-1.134,0.306-1.134,0.916
		c0,0.57,0.375,0.853,1.134,0.853h0.806v1.089h-0.727c-1.526,0-2.31-0.751-2.31-1.965c0-1.024,0.634-1.77,1.629-1.934
		c0.18-0.03,0.554-0.03,1.134-0.038c-0.141-0.697-0.563-1.042-1.261-1.042c-0.171,0-0.328,0.032-0.477,0.086v-0.971
		c0.18-0.038,0.368-0.061,0.548-0.061c1.4,0,2.199,0.859,2.293,2.386c0.142,0.814,0.579,1.197,1.308,1.197h0.134V206.162z
		 M118.994,205.88h-0.979v-0.9h0.979V205.88z M124.931,206.162h-3.521v-1.05h0.721c0.367,0,0.547-0.25,0.547-0.75v-1.746h1.104
		v1.707c0,0.289-0.04,0.547-0.126,0.789h1.275V206.162z M123.672,207.459h-0.971v-0.907h0.971V207.459z M122.2,207.459h-0.971
		v-0.907h0.971V207.459z M128.296,206.162h-3.554v-1.05h0.743c0.367,0,0.555-0.25,0.555-0.75v-3.241h1.104v3.202
		c0,0.289-0.047,0.547-0.133,0.789h1.284V206.162z M131.447,202.021h-0.971v-0.9h0.971V202.021z M134.492,206.162h-6.387v-1.05
		h4.445c-0.023-0.415-0.172-0.767-0.445-1.063c-0.306-0.337-0.714-0.51-1.207-0.51c-0.469,0-1.001,0.244-1.307,0.564
		c-0.109-0.149-0.29-0.392-0.547-0.745c0.532-0.556,1.173-0.829,1.933-0.829c0.462,0,0.869,0.087,1.222,0.251
		c0.838,0.4,1.33,1.174,1.463,2.332h0.83V206.162z M136.602,204.65c0,0.415-0.118,0.76-0.345,1.034
		c-0.259,0.32-0.619,0.478-1.08,0.478h-1.034v-1.05h0.807c0.368,0,0.556-0.258,0.556-0.767v-3.225h1.097V204.65z M138.493,206.162
		h-1.095v-5.049h1.095V206.162z"/>
	<path fill="#FFFFFF" d="M115.694,210.907h-0.971v-0.9h0.971V210.907z M118.896,215.05h-1.604c-0.432,0.812-1.223,1.299-2.138,1.299
		c-1.378,0-2.473-1.159-2.473-2.662v-2.183h1.104v2.081c0,1.034,0.522,1.746,1.376,1.746c0.846,0,1.37-0.736,1.37-1.746v-2.081
		h1.096v2.495h1.269V215.05z M122.154,215.05h-3.521v-1.051h0.72c0.368,0,0.547-0.25,0.547-0.752v-1.743h1.104v1.704
		c0,0.292-0.04,0.55-0.125,0.791h1.275V215.05z M120.895,216.349h-0.971v-0.909h0.971V216.349z M119.423,216.349h-0.971v-0.909
		h0.971V216.349z M126.605,213.938c0,1.047-0.703,1.783-1.799,1.783c-0.667,0-1.167-0.227-1.488-0.672h-1.408v-1.051h1.088
		c0-1.118,0.642-1.83,1.769-1.83S126.605,212.864,126.605,213.938 M125.519,213.976c0-0.618-0.234-0.931-0.698-0.931h-0.077
		c-0.399,0-0.674,0.367-0.674,0.883c0,0.533,0.267,0.901,0.737,0.901C125.237,214.829,125.519,214.486,125.519,213.976
		 M128.638,209.569h-1.4v-0.399h0.304l-0.03-0.202c0-0.354,0.25-0.626,0.587-0.626c0.251,0,0.422,0.123,0.524,0.366l-0.353,0.164
		c-0.031-0.107-0.085-0.164-0.172-0.164c-0.117,0-0.18,0.079-0.18,0.235c0,0.118,0.039,0.195,0.109,0.218h0.61V209.569z
		 M129.757,215.05h-1.033c-0.838,0-1.323-0.486-1.323-1.292v-3.757h1.097v3.185c0,0.532,0.133,0.813,0.939,0.813h0.32V215.05z
		 M131.876,210.907h-0.971v-0.9h0.971V210.907z M130.405,210.907h-0.972v-0.9h0.972V210.907z M133.112,215.05h-3.529v-1.051h0.72
		c0.368,0,0.556-0.25,0.556-0.752v-1.743h1.104v1.704c0,0.292-0.047,0.55-0.132,0.791h1.282V215.05z M136.477,215.05h-3.553v-1.051
		h0.741c0.369,0,0.557-0.25,0.557-0.752v-3.24h1.104v3.201c0,0.292-0.047,0.55-0.133,0.791h1.283V215.05z M138.604,213.539
		c0,0.414-0.117,0.758-0.345,1.031c-0.259,0.321-0.618,0.479-1.081,0.479h-1.032v-1.051h0.806c0.368,0,0.557-0.258,0.557-0.766
		v-3.227h1.096V213.539z"/>
</g>
</svg>
