<?xml version="1.0" encoding="utf-8"?>
<!-- Generator: Adobe Illustrator 16.0.0, SVG Export Plug-In . SVG Version: 6.00 Build 0)  -->
<!DOCTYPE svg PUBLIC "-//W3C//DTD SVG 1.1//EN" "http://www.w3.org/Graphics/SVG/1.1/DTD/svg11.dtd">
<svg version="1.1" id="Layer_1" xmlns="http://www.w3.org/2000/svg" xmlns:xlink="http://www.w3.org/1999/xlink" x="0px" y="0px"
	 width="1980px" height="1382px" viewBox="0 0 1980 1382" enable-background="new 0 0 1980 1382" xml:space="preserve">
<g>
	<g>
		<g id="Layer_1_1_">
			<g opacity="0.201" enable-background="new    ">
				<defs>
					<rect id="SVGID_1_" x="330.399" y="1" opacity="0.201" enable-background="new    " width="983.201" height="1382"/>
				</defs>
				<clipPath id="SVGID_2_">
					<use xlink:href="#SVGID_1_"  overflow="visible"/>
				</clipPath>
				<g clip-path="url(#SVGID_2_)">
					<g>
						<defs>
							<path id="SVGID_3_" d="M1033.557,2.08c2.416,3.341-74.764,2.941,19.767,12.414c94.46,9.475,125.488,15.636,104.256,24.007
								c-21.254,8.345-178.113,13.374-204.094,23.417c-3.027,1.17-4.308,2.405-4.144,3.688
								c2.538,9.934,86.193,22.362,125.771,30.072c65.01,12.696,122.469,27.437,145.232,52.806
								c3.021,3.387,51.548,54.286-158.435,93.948C779.146,295.85,726.067,372.304,717.07,405.289
								c-10.789,41.802-80.603,77.933,316.367,475.502c287.557,287.991,259.244,490.338,273.376,502.209l-258.916-0.262
								c-85.951-166.957-209.88-327.399-371.788-481.32C522.308,755.205,369.859,629.958,353.935,595.82
								c-12.687-27.176-61.04-157.969,102.533-273.43c163.574-115.459,571.608-124.395,598.667-162.317
								c27.056-37.923-196.975-65.829-212.424-87.552c-15.471-21.771,219.82-28.471,237.927-36.254
								c18.081-7.807-42.291-15.072-74.052-17.868c-31.739-2.774-42.183-3.902-41.167-8.627C966.409,5.067,1005.594,1,1024.105,1
								C1029.393,1,1032.996,1.329,1033.557,2.08z"/>
						</defs>
						<clipPath id="SVGID_4_">
							<use xlink:href="#SVGID_3_"  overflow="visible"/>
						</clipPath>
						<g clip-path="url(#SVGID_4_)">
							<g>
								<defs>
									<rect id="SVGID_5_" x="336.67" y="1" width="1096.068" height="1382"/>
								</defs>
								<clipPath id="SVGID_6_">
									<use xlink:href="#SVGID_5_"  overflow="visible"/>
								</clipPath>
								<rect x="331.135" y="-5.271" clip-path="url(#SVGID_6_)" fill="#CD8857" width="981.948" height="1394.541"/>
							</g>
						</g>
					</g>
				</g>
			</g>
			
				<path fill="none" stroke="#FFFFFF" stroke-width="11" stroke-linejoin="round" stroke-miterlimit="10" stroke-dasharray="50,50" d="
				M968.652,108.155c-6.639,52.63,128.967,0.85,112.898,58.702c-6.973,25.108-85.736,36.434-216.432,64.682
				c-39.795,8.601-176.577,28.085-263.438,61.746c-31.606,12.249-103.753,66.496-132.484,103.574
				c-31.314,40.413-17.93,63.713-19.096,73.566c-4.707,40.313,140.565,196.874,435.817,469.68
				c71.533,91.839,122.372,163.516,152.519,215.029c30.146,51.514,56.797,126.077,79.953,223.688"/>
		</g>
	</g>
</g>
</svg>
