<?xml version="1.0" encoding="UTF-8"?>
<svg width="158px" height="571px" viewBox="0 0 158 571" version="1.1" xmlns="http://www.w3.org/2000/svg" xmlns:xlink="http://www.w3.org/1999/xlink">
    <!-- Generator: Sketch 52.6 (67491) - http://www.bohemiancoding.com/sketch -->
    <title>Group</title>
    <desc>Created with Sketch.</desc>
    <g id="Inner-Pages" stroke="none" stroke-width="1" fill="none" fill-rule="evenodd">
        <g id="VERSION-2F" transform="translate(-644.000000, -1023.000000)">
            <g id="Group" transform="translate(644.000000, 1024.000000)">
                <path d="M115.195312,-1.1937118e-12 C104.632812,17.8133333 94.9010417,36.1466667 86,55 C77.8746598,72.2103168 69.4492188,94 63.8867187,136 C62.3223352,147.811975 62.4774483,159.391357 63.8867187,170 C65.616213,183.01921 69.3938479,195.466732 76.1523437,216 C78.0670673,221.817201 102.590445,265.12328 105.140625,268 C120.210938,285 154.246094,366.86533 154.246094,383 C154.246094,407 160.941406,437.563485 154.246094,476 C150.673164,496.511508 137.656237,527.844842 115.195312,570 L38.46875,570 C72.2264161,505.353506 89.8201661,457.353506 91.25,426 C91.8790311,412.206559 86.1461439,371.909963 80.2870878,358.735294 C70.7655034,337.325067 60.2931132,308.285944 54.453125,299 C45.0195312,284 38.46875,274 30.3125,252 C28.8633103,248.091074 19.7148438,228 8.1640625,197 C-3.38671875,166 1.84765625,135.196127 1.84765625,128 C1.84765625,73 34.1423616,32.1406474 38.46875,-1.1937118e-12" id="Path-4" fill="#AFAFAF" opacity="0.298618862"></path>
                <path d="M77.640625,0 L59.2929687,40 L39.7070312,88.7352941 L32.484375,133 L32.484375,160 L46.7539062,216 L77.640625,284 L109.359375,342 L124.65625,389.5 L124.65625,434.817983 L124.65625,474.179549 L102.507813,519 L78.5703125,570" id="Path-3" stroke="#101257" stroke-width="2" stroke-dasharray="6,10"></path>
            </g>
        </g>
    </g>
</svg>